<svg width="38" height="38" viewBox="0 0 38 38" fill="none" xmlns="http://www.w3.org/2000/svg">
<g clip-path="url(#clip0_22721_6812)">
<path d="M37.9997 19.1156C37.9997 8.55808 29.4931 -0.000488281 18.9997 -0.000488281C8.50631 -0.000488281 -0.000274658 8.55808 -0.000274658 19.1156C-0.000274658 28.657 6.94775 36.5654 16.031 37.9995V24.6414H11.2068V19.1156H16.031V14.9041C16.031 10.1131 18.8675 7.46674 23.2076 7.46674C25.2863 7.46674 27.4607 7.84011 27.4607 7.84011V12.5445H25.0648C22.7045 12.5445 21.9685 14.018 21.9685 15.5297V19.1156H27.238L26.3956 24.6414H21.9685V37.9995C31.0517 36.5654 37.9997 28.657 37.9997 19.1156Z" fill="#24A3FF"/>
</g>
<defs>
<clipPath id="clip0_22721_6812">
<rect width="38" height="38" fill="white" transform="translate(-0.000274658 -0.000488281)"/>
</clipPath>
</defs>
</svg>
